# Blender v2.80 (sub 75) OBJ File: 'Umbrella.blend'
# www.blender.org
mtllib gray_umbrella_3d.mtl
o Cube
v 0.437500 0.000000 0.562500
v 0.000000 0.750000 1.000000
v 0.437500 0.000000 0.437500
v 0.000000 0.750000 0.000000
v 0.562500 0.000000 0.562500
v 1.000000 0.750000 1.000000
v 0.562500 0.000000 0.437500
v 1.000000 0.750000 0.000000
v 0.500000 1.000000 0.500000
v 0.562500 0.937500 0.437500
v 0.437500 0.937500 0.562500
v 0.437500 0.937500 0.437500
v 0.562500 0.937500 0.562500
v 0.062500 0.750000 0.937500
v 0.937500 0.750000 0.062500
v 0.062500 0.750000 0.062500
v 0.937500 0.750000 0.937500
vt 0.468750 0.968750
vt 0.500000 1.000000
vt 0.500000 0.500000
vt 0.468750 0.531250
vt 0.000000 0.500000
vt 0.031250 0.531250
vt -0.000000 1.000000
vt 0.031250 0.968750
vt 0.750000 0.500000
vt 0.687500 0.500000
vt 0.687500 0.437500
vt 0.750000 0.437500
vt 0.250000 0.750000
vt 0.875000 0.500000
vt 0.875000 0.968750
vt 0.812500 0.968750
vt 0.812500 0.500000
vt 0.750000 0.968750
vt 0.687500 0.968750
vt 0.625000 0.968750
vt 0.625000 0.500000
vt 0.218750 0.781250
vt 0.281250 0.781250
vt 0.218750 0.718750
vt 0.281250 0.718750
vn 0.0000 -1.0000 0.0000
vn -0.4472 0.8944 0.0000
vn 0.4472 0.8944 0.0000
vn 0.0000 0.8944 0.4472
vn 0.0000 0.8944 -0.4472
vn 0.0000 0.0000 1.0000
vn -1.0000 0.0000 0.0000
vn 0.0000 0.0000 -1.0000
vn 1.0000 0.0000 0.0000
vn 0.0000 -0.8944 -0.4472
vn -0.4472 -0.8944 0.0000
vn 0.0000 -0.8944 0.4472
vn 0.4472 -0.8944 0.0000
usemtl Material
s off
f 14/1/1 2/2/1 4/3/1 16/4/1
f 16/4/1 4/3/1 8/5/1 15/6/1
f 15/6/1 8/5/1 6/7/1 17/8/1
f 17/8/1 6/7/1 2/2/1 14/1/1
f 3/9/1 7/10/1 5/11/1 1/12/1
f 4/3/2 2/2/2 9/13/2
f 6/7/3 8/5/3 9/13/3
f 2/2/4 6/7/4 9/13/4
f 8/5/5 4/3/5 9/13/5
f 5/14/6 13/15/6 11/16/6 1/17/6
f 1/17/7 11/16/7 12/18/7 3/9/7
f 3/9/8 12/18/8 10/19/8 7/10/8
f 7/10/9 10/19/9 13/20/9 5/21/9
f 13/22/10 17/8/10 14/1/10 11/23/10
f 10/24/11 15/6/11 17/8/11 13/22/11
f 12/25/12 16/4/12 15/6/12 10/24/12
f 11/23/13 14/1/13 16/4/13 12/25/13
